<svg xmlns="http://www.w3.org/2000/svg" viewBox="0 0 395.6 60"><path class="st0" d="M58.7 10.8h-5.6v48.3H42.8l-25.1-33v22.1h5.6V59H0V48.3h5.6V10.8H0V0h17.6L41 30.7V10.8h-5.6V0h23.2l.1 10.8zM95.8 38c0 .9 0 1.8-.1 2.7H70.3c-.7 8.2 2.4 10.6 7.1 10.6 3.9 0 6.9-2.6 6.9-6.6h11c-.3 7.2-4 15.4-18.5 15.4S55.5 49.6 55.5 38c0-10.5 7-21.6 21-21.6 13.4-.1 19.3 9.2 19.3 21.6M159 27.3h-3.7l-9.4 31.8h-12.5l-5.9-17.4-5.3 17.4h-12.8L98.8 27.4h-3.7V16.6h22.1v10.7h-5.6l5.8 16.9 7.6-27.6h6.8l9.3 27.6 5-16.9h-5.6V16.6H159v10.7zm15.5.5c0 1.5 1.2 2.5 5.4 3.9l6 2c5.5 1.8 12.1 5.9 12.1 13.4 0 8.8-6.6 13-14.7 13-6.5 0-11.5-3.2-12.9-4.6V59h-10.8V44.4h10.6c.3 4.8 4.6 7.3 8.5 7.3 3.2 0 4.7-1.4 4.7-3 0-2-1.2-3.1-6.5-4.8l-5.3-1.8c-5.4-1.7-11.4-5.7-11.4-12.8 0-8.7 7.7-13.1 14.3-13.1 6.8 0 10.1 1.9 11.8 3.8l.1-3.3H197V30h-11.2c-.2-3.6-3.7-5.2-7.2-5.2-2.8 0-4.1 1.3-4.1 3m88.3-.5h-3.7l-9.4 31.8h-12.5l-5.9-17.4-5.3 17.4h-12.8l-10.6-31.7h-3.7V16.6H221v10.7h-5.6l5.8 16.9 7.6-27.6h6.8l9.3 27.7 5-16.9h-5.6V16.6h18.5v10.7zM302 37.9c0 .9 0 1.8-.1 2.7h-25.4c-.7 8.2 2.4 10.6 7.1 10.6 3.9 0 6.9-2.6 6.9-6.6h11c-.3 7.2-4 15.4-18.5 15.4s-21.3-10.5-21.3-22.1c0-10.5 7-21.6 21-21.6 13.4-.1 19.3 9.2 19.3 21.6m41.9-.1c0 .9 0 1.8-.1 2.7h-25.4c-.7 8.2 2.4 10.6 7.1 10.6 3.9 0 6.9-2.6 6.9-6.6h11c-.3 7.2-4 15.4-18.5 15.4s-21.3-10.5-21.3-22.1c0-10.5 7-21.6 21-21.6 13.4-.1 19.3 9.2 19.3 21.6m46 21.2h-12.8l-13.3-17.3-4.3 3.2v3.4h3.8V59h-19.6V48.3h3.7V10.6h-5.6V0h17.8v33.9l8.9-6.5h-5.6V16.6h23.9v10.8h-3.7l-9.3 7 10.7 13.9h5.6l-.2 10.7zm5.7-2.4c0 .5-.1.9-.4 1.2-.2.4-.5.7-.9.9-.4.2-.8.4-1.3.4s-.9-.1-1.2-.4c-.4-.2-.7-.5-.9-.9-.2-.4-.4-.8-.4-1.2 0-.5.1-.9.4-1.2.2-.4.5-.7.9-.9.4-.2.8-.4 1.2-.4.5 0 .9.1 1.3.4.4.2.7.5.9.9.3.4.4.8.4 1.2m-1 1.4c.4-.4.6-.9.6-1.4 0-.6-.2-1-.6-1.4s-.9-.6-1.4-.6-1 .2-1.4.6c-.4.4-.6.9-.6 1.4 0 .6.2 1 .6 1.4.4.4.9.6 1.4.6s1-.2 1.4-.6m-1-1.2c.1.1.2.1.2.1.1.1.2.2.2.3 0 0 .2.3.4.8h-.8c-.3-.5-.4-.8-.5-.9-.1-.1-.2-.2-.3-.2h-.1V58h-.6v-2.6h1.2c.4 0 .6.1.7.2.2.2.2.3.2.6 0 .2-.1.4-.2.5-.1-.1-.2 0-.4.1m-.1-.5c.1-.1.1-.2.1-.3s-.1-.2-.1-.3c-.1-.1-.2-.1-.4-.1h-.3v.7h.3c.2.1.3.1.4 0m-75.1-22.8h13.9c0-6-3.9-8.4-6.8-8.4-3.4.1-6.9 2.8-7.1 8.4m-41.9.1h13.9c0-6-3.9-8.4-6.8-8.4-3.3 0-6.8 2.8-7.1 8.4m-206.2.1h13.9c0-6-3.9-8.4-6.8-8.4-3.3 0-6.8 2.8-7.1 8.4"/></svg>